<svg width="66" height="66" viewBox="0 0 66 66" fill="none"
  xmlns="http://www.w3.org/2000/svg">
  <g style="mix-blend-mode:darken" filter="url(#filter0_d_6_14)">
    <path d="M15.5807 15.4422C27.7671 3.63888 45.5026 4.48564 48.4719 7.45495C51.4412 10.4243 52.6711 28.5429 40.6763 40.5377C28.6815 52.5326 10.8498 51.9735 7.40156 48.5253C3.95333 45.077 3.39428 27.2454 15.5807 15.4422Z" fill="#baabda"/>
    <path d="M15.5807 15.4422C27.7671 3.63888 45.5026 4.48564 48.4719 7.45495C51.4412 10.4243 52.6711 28.5429 40.6763 40.5377C28.6815 52.5326 10.8498 51.9735 7.40156 48.5253C3.95333 45.077 3.39428 27.2454 15.5807 15.4422Z" fill="url(#paint0_linear_6_14)" fill-opacity="0.2"/>
  </g>
  <defs>
    <filter id="filter0_d_6_14" x="0.259689" y="0.563766" width="65.2135" height="65.1129" filterUnits="userSpaceOnUse" color-interpolation-filters="sRGB">
      <feFlood flood-opacity="0" result="BackgroundImageFix"/>
      <feColorMatrix in="SourceAlpha" type="matrix" values="0 0 0 0 0 0 0 0 0 0 0 0 0 0 0 0 0 0 127 0" result="hardAlpha"/>
      <feOffset dx="5" dy="5"/>
      <feGaussianBlur stdDeviation="5"/>
      <feComposite in2="hardAlpha" operator="out"/>
      <feColorMatrix type="matrix" values="0 0 0 0 0 0 0 0 0 0 0 0 0 0 0 0 0 0 0.25 0"/>
      <feBlend mode="normal" in2="BackgroundImageFix" result="effect1_dropShadow_6_14"/>
      <feBlend mode="normal" in="SourceGraphic" in2="effect1_dropShadow_6_14" result="shape"/>
    </filter>
    <linearGradient id="paint0_linear_6_14" x1="4.22364" y1="50.2588" x2="53.0288" y2="5.48706" gradientUnits="userSpaceOnUse">
      <stop offset="0.389731"/>
      <stop offset="1" stop-opacity="0"/>
    </linearGradient>
  </defs>
</svg>
